<svg viewBox="0 0 48 48" xmlns="http://www.w3.org/2000/svg" xmlns:xlink="http://www.w3.org/1999/xlink" width="48" height="48">
<defs>



 <path fill="#5d6b82" id="i-415" d="M18.093,25.961C20.025,27.92,22.127,29,24.01,29C28.966,29,34,21.437,34,16V4c0-3.711-7.654-4-10-4S14,0.289,14,4l0,10.5 c0.001,0.793,0.002,2.211,0,2.486C13.959,19.92,15.527,23.358,18.093,25.961z M16,9.998C16.003,9.322,18.419,8,24,8 c5.584,0,8,1.324,8,2v2.368C29.568,11.141,25.583,11,24,11c-1.581,0-5.564,0.135-8,1.356V9.998z M31.098,14.15 c-1.546,0.064-2.362-0.384-2.808-0.828C29.568,13.539,30.49,13.843,31.098,14.15z M16.001,14.995C16.012,14.318,18.428,13,24,13 c0.662,0,1.276,0.02,1.851,0.054c0.006,0.106,0.026,0.214,0.067,0.316c-0.06,0.136-0.498,0.539-2.07,0.539 c-3.865,0-6.372,0.716-7.846,1.356C16.001,15.172,16.001,15.084,16.001,14.995z M24.01,27c-1.304,0-2.984-0.914-4.493-2.443 c-2.031-2.061-3.355-4.781-3.49-7.076c0.889-0.515,3.269-1.571,7.821-1.571c1.726,0,2.722-0.423,3.296-0.922 c1.145,0.983,2.772,1.337,4.853,1.083C31.952,20.791,27.428,27,24.01,27z M24,2c5.584,0,8,1.324,8,2v3.36 C29.567,6.137,25.581,6,24,6c-1.583,0-5.568,0.14-8,1.367V4C16,3.324,18.416,2,24,2z M40.448,32.105 c-1.203-0.602-2.915-0.863-4.729-1.141c-1.368-0.21-2.778-0.426-4.015-0.791l-1.347-2.693L25,31.5V33c0,0.551-0.449,1-1,1 s-1-0.449-1-1v-1.5l-5.359-4.02l-1.328,2.659c-1.46,0.345-2.79,0.56-3.975,0.751c-1.872,0.304-3.488,0.564-4.786,1.215 C5.395,33.187,5,37.97,5,47v1h38v-1C43,37.97,42.605,33.187,40.448,32.105z M7.001,46c0.011-3.715,0.133-11.447,1.447-12.105 c1.024-0.514,2.43-0.74,4.209-1.029c1.344-0.217,2.868-0.464,4.585-0.893l0.446-0.112l0.67-1.341L21,32.5V33c0,1.654,1.346,3,3,3 s3-1.346,3-3v-0.5l2.642-1.98l0.649,1.299l0.393,0.131c1.487,0.495,3.138,0.748,4.734,0.992c1.652,0.252,3.214,0.491,4.134,0.953 c1.314,0.658,1.436,8.391,1.447,12.105H7.001z M31,37c0,1.104-0.897,2-2,2s-2-0.896-2-2s0.897-2,2-2S31,35.896,31,37z M21,43 c0,1.104-0.897,2-2,2s-2-0.896-2-2s0.897-2,2-2S21,41.896,21,43z M21,37c0,1.104-0.897,2-2,2s-2-0.896-2-2s0.897-2,2-2 S21,35.896,21,37z M31,43c0,1.104-0.897,2-2,2s-2-0.896-2-2s0.897-2,2-2S31,41.896,31,43z"/> 
</defs>

<use x="0" y="0" xlink:href="#i-415"/>

</svg>