<svg viewBox="0 0 48 48" xmlns="http://www.w3.org/2000/svg" xmlns:xlink="http://www.w3.org/1999/xlink" width="48" height="48">
<defs>



 <path fill="#5d6b82" id="i-451" d="M40.184,33.307c-1.182-0.502-2.203-0.934-2.736-1.201C35.276,31.02,31.236,29,29,29c-2.014,0-3.123,0-7.242,1.029 c-1.116,0.279-2.151,0.415-3.165,0.415c-0.976,0-1.786-0.122-2.571-0.241C15.332,30.1,14.681,30,14,30 c-1.068,0-1.859,0.615-2.014,1.564c-0.232,1.438,1.114,3.523,3.697,4.385c1.001,0.334,1.988,0.495,3.02,0.495 c0.934,0,1.777-0.134,2.521-0.251c0.561-0.088,1.094-0.174,1.597-0.189c-0.046,0.016-0.092,0.033-0.138,0.047 c-1.578,0.527-3.6,1.131-5.22,1.131c-0.456,0-0.856-0.047-1.188-0.143l-1.072-0.307C9.1,34.99,7.043,34.403,4.447,33.105 c-0.689-0.344-1.346-0.52-1.947-0.52C0.876,32.586,0,33.83,0,35c0,1.24,1.531,2.385,6.552,4.895 c1.999,0.998,4.064,2.031,7.131,3.055C15.834,43.666,19.838,45,23,45c2.368,0,4.966-1.227,7.258-2.311C32.096,41.82,33.832,41,35,41 c1.527,0,3.759,1.947,5.235,3.234C41.639,45.459,42.289,46,43,46c2.045,0,5-7.074,5-8C48,36.852,46.686,36.061,40.184,33.307z M42.923,43.871c-0.349-0.25-0.905-0.734-1.373-1.145C39.746,41.154,37.276,39,35,39c-1.617,0-3.55,0.914-5.597,1.881 C27.199,41.924,24.92,43,23,43c-2.838,0-6.641-1.268-8.684-1.949c-2.933-0.977-4.845-1.934-6.869-2.945 c-3.182-1.59-5.008-2.676-5.434-3.229c0.039-0.152,0.162-0.291,0.486-0.291c0.199,0,0.543,0.053,1.052,0.309 c2.762,1.381,4.864,1.98,11.102,3.762l1.07,0.305c0.513,0.146,1.098,0.221,1.738,0.221c0.001,0,0.001,0,0.001,0 c1.897,0,4.023-0.623,5.853-1.232c0.713-0.238,3.021-1.127,2.782-2.594C25.879,34,23.935,34,23,34c-0.712,0-1.412,0.111-2.088,0.219 c-1.44,0.227-3.044,0.351-4.596-0.168c-1.545-0.514-2.275-1.602-2.353-2.051c0.011,0,0.022,0,0.036,0 c0.53,0,1.083,0.084,1.723,0.182c0.817,0.123,1.744,0.263,2.87,0.263c1.179,0,2.373-0.155,3.649-0.474C26.123,31,27.024,31,29,31 c1.764,0,5.82,2.028,7.553,2.895c0.59,0.295,1.638,0.738,2.851,1.254c1.853,0.785,5.559,2.355,6.536,3.094 C45.573,39.482,43.78,42.926,42.923,43.871z M14,26c3.309,0,6-2.691,6-6c0-1.926-1.043-4.02-2.252-6.445 c-1.014-2.033-2.162-4.336-2.777-6.797L14,2.881l-0.971,3.877c-0.615,2.461-1.764,4.766-2.777,6.801C9.043,15.982,8,18.074,8,20 C8,23.309,10.691,26,14,26z M12.041,14.449c0.652-1.307,1.357-2.721,1.959-4.238c0.602,1.516,1.307,2.93,1.958,4.236 C17.053,16.646,18,18.545,18,20c0,2.205-1.795,4-4,4s-4-1.795-4-4C10,18.545,10.946,16.648,12.041,14.449z"/> 
</defs>

<use x="0" y="0" xlink:href="#i-451"/>

</svg>